<svg xmlns="http://www.w3.org/2000/svg" width="1080" height="1920" viewBox="0 0 1080 1920">
  <rect width="1080" height="1920" fill="black"/>
  <polyline class="left-wrist" points="683,1093 687,1093 690,1093 694,1090 700,1090 706,1092 710,1094 714,1095 715,1095 717,1096 720,1098 721,1099 722,1100 720,1100 721,1102" stroke="#00C8FF" stroke-width="8" stroke-linecap="round" stroke-linejoin="round" fill="none" opacity="0.85"/>
  <polyline class="left-wrist" points="722,1103 723,1104 723,1104 722,1103 723,1105" stroke="#00C8FF" stroke-width="8" stroke-linecap="round" stroke-linejoin="round" fill="none" opacity="0.85"/>
  <polyline class="right-wrist" points="474,1267 486,1259 496,1251 506,1245 526,1233 544,1220 559,1211 573,1203 583,1195 592,1187 602,1182 610,1177" stroke="#FF6B35" stroke-width="8" stroke-linecap="round" stroke-linejoin="round" fill="none" opacity="0.85"/>
  <polyline class="right-wrist" points="618,1175 626,1171 633,1167 642,1167 649,1169 654,1169 659,1168 663,1167 664,1165 668,1166 669,1167 671,1167 673,1169 674,1173 676,1178 677,1184 676,1193 677,1202 677,1212 677,1222 678,1232 679,1244 679,1255 680,1265 681,1275 682,1287 682,1296 683,1304 682,1310 682,1317 683,1323 682,1326 682,1327 681,1326 680,1326 680,1326 679,1324 679,1322 678,1322 677,1319 677,1319 677,1318 677,1316 678,1316 678,1315 679,1314 679,1315 680,1316 680,1317 680,1318 680,1318 680,1318 681,1319 680,1318 681,1316 681,1312 679,1307 678,1298 677,1289 676,1277 676,1264 676,1248 676,1233 678,1220 681,1208 683,1199 686,1190 688,1184 691,1181 694,1179 696,1177 698,1176 699,1176 700,1175 701,1176 701,1177 701,1178 701,1179 700,1179 700,1180 701,1182 701,1182 701,1183 702,1184 703,1187 704,1191 705,1195 707,1202 708,1210 710,1219 711,1229 713,1238 714,1244 715,1249 715,1254" stroke="#FF6B35" stroke-width="8" stroke-linecap="round" stroke-linejoin="round" fill="none" opacity="0.85"/>
</svg>